<svg width="1169" height="200" viewBox="0 0 1169 200" fill="none" xmlns="http://www.w3.org/2000/svg">
<g clip-path="url(#clip0_230_113)">
<path d="M390.16 163.84L378.85 145.34H368.65V189.1H377.93V160.72L389.92 179.22H390.16L402.27 160.53V189.1H411.68V145.34H401.48L390.16 163.84Z" fill="white"/>
<path d="M857.44 159.9V159.78C857.44 155.66 856.15 152.21 853.75 149.78C850.92 146.9 846.68 145.34 841.21 145.34H821.54V189.11H831.01V175.1H838.45L847.67 189.11H858.74L848.23 173.48C853.71 171.42 857.45 166.98 857.45 159.91L857.44 159.9ZM847.85 160.4C847.85 164.09 845.2 166.59 840.6 166.59H831.01V154.03H840.41C845.02 154.03 847.85 156.15 847.85 160.28V160.4Z" fill="white"/>
<path d="M609.281 171.34H629.571V162.78H609.281V153.9H632.351V145.34H599.881V189.1H632.651V180.53H609.281V171.34Z" fill="white"/>
<path d="M547.53 154.21H560.63V189.1H570.1V154.21H583.19V145.34H547.53V154.21Z" fill="white"/>
<path d="M452.3 144.58C439.02 144.58 429.37 154.77 429.37 167.21V167.34C429.37 179.78 438.9 189.85 452.18 189.85C465.46 189.85 475.11 179.66 475.11 167.22V167.1C475.11 154.66 465.58 144.59 452.31 144.59L452.3 144.58ZM465.21 167.34C465.21 174.84 459.93 180.97 452.3 180.97C444.67 180.97 439.27 174.71 439.27 167.21V167.09C439.27 159.59 444.55 153.46 452.18 153.46C459.81 153.46 465.21 159.71 465.21 167.21V167.34Z" fill="white"/>
<path d="M521.69 172.29L501.52 145.34H492.79V189.1H502.13V161.28L522.98 189.1H531.03V145.34H521.69V172.29Z" fill="white"/>
<path d="M681.01 172.29L660.84 145.34H652.11V189.1H661.45V161.28L682.3 189.1H690.35V145.34H681.01V172.29Z" fill="white"/>
<path d="M896.271 144.58C882.991 144.58 873.341 154.77 873.341 167.21V167.34C873.341 179.78 882.871 189.85 896.151 189.85C909.431 189.85 919.081 179.66 919.081 167.22V167.1C919.081 154.66 909.551 144.59 896.281 144.59L896.271 144.58ZM909.181 167.34C909.181 174.84 903.891 180.97 896.271 180.97C888.651 180.97 883.231 174.71 883.231 167.21V167.09C883.231 159.59 888.521 153.46 896.151 153.46C903.781 153.46 909.181 159.71 909.181 167.21V167.34Z" fill="white"/>
<path d="M721.81 171.34H742.1V162.78H721.81V153.9H744.87V145.34H712.41V189.1H745.18V180.53H721.81V171.34Z" fill="white"/> 


<path d="M783.26 172.22H792.79V178.47C790.39 180.22 787.32 181.1 783.88 181.1C776.26 181.1 770.84 175.22 770.84 167.22V167.1C770.84 159.66 776.31 153.47 783.2 153.47C788.18 153.47 791.13 155.1 794.45 157.91L800.41 150.59C795.93 146.72 791.25 144.59 783.51 144.59C770.47 144.59 760.95 154.78 760.95 167.22V167.35C760.95 180.29 770.17 189.86 783.57 189.86C791.44 189.86 797.52 186.74 801.95 182.92V163.91H783.26V172.23V172.22Z" fill="white"/>
<path d="M405.78 31.5499H374.87H364.23V34.5699C367.63 35.5799 370.26 36.9799 372.1 38.7699C373.94 40.5699 374.87 43.1599 374.87 46.5699V53.0199V109.95H388.65V84.7499H404.22C421.47 84.7499 435.58 75.5699 435.58 57.9799V57.7499C435.58 41.9599 424.16 31.5399 405.79 31.5399L405.78 31.5499ZM421.57 58.3199C421.57 66.4999 415.07 72.3199 404.66 72.3199H388.64V44.0999H404.66C414.96 44.0999 421.57 48.9199 421.57 58.0999V58.3299V58.3199Z" fill="white"/>
<path d="M499.64 30.2C475.56 30.2 458.54 48.6799 458.54 70.7399V70.9599C458.54 93.0199 475.34 111.28 499.42 111.28C523.5 111.28 540.52 92.7999 540.52 70.7399V70.5199C540.52 48.4599 523.72 30.2 499.64 30.2ZM526.07 70.97C526.07 86.2 515.2 98.5199 499.64 98.5199C484.08 98.5199 472.99 85.9799 472.99 70.7399V70.5199C472.99 55.2899 483.85 42.97 499.42 42.97C514.99 42.97 526.08 55.51 526.08 70.75V70.97H526.07Z" fill="white"/>
<path d="M635.59 56.5199V56.2999C635.59 49.4699 633.24 43.6399 629.09 39.3899C624.05 34.4599 616.32 31.5499 606.47 31.5499H571.53H560.9V34.5699C564.3 35.5799 566.93 36.9799 568.77 38.7699C570.58 40.5299 571.5 43.0699 571.53 46.3799V53.0099V109.94H585.31V82.6099H602.56L621.82 109.94H638.17L617 80.2599C627.86 77.1199 635.59 69.3999 635.59 56.5199ZM585.3 70.4099V44.0899H605.35C615.54 44.0899 621.59 48.6799 621.59 57.0799V57.2999C621.59 65.2499 615.32 70.3999 605.46 70.3999H585.3V70.4099Z" fill="white"/>
<path d="M657.891 44.3199H682.861V109.95H696.641V44.3199H721.611V31.5499H657.891V44.3199Z" fill="white"/>


<!-- <path d="M778.87 30.2C754.79 30.2 737.771 48.6799 737.771 70.7399V70.9599C737.771 93.0199 754.571 111.28 778.651 111.28C802.731 111.28 819.75 92.7999 819.75 70.7399V70.5199C819.75 48.4599 802.95 30.2 778.87 30.2ZM805.3 70.97C805.3 86.2 794.44 98.5199 778.87 98.5199C763.3 98.5199 752.211 85.9799 752.211 70.7399V70.5199C752.211 55.2899 763.071 42.97 778.641 42.97C794.211 42.97 805.29 55.51 805.29 70.75V70.97H805.3Z" fill="white"/> -->
<!-- <path d="M990.071 30.2C965.991 30.2 948.971 48.6799 948.971 70.7399V70.9599C948.971 93.0199 965.771 111.28 989.851 111.28C1013.93 111.28 1030.95 92.7999 1030.95 70.7399V70.5199C1030.95 48.4599 1014.15 30.2 990.071 30.2ZM1016.5 70.97C1016.5 86.2 1005.64 98.5199 990.071 98.5199C974.501 98.5199 963.411 85.9799 963.411 70.7399V70.5199C963.411 55.2899 974.271 42.97 989.841 42.97C1005.41 42.97 1016.5 55.51 1016.5 70.75V70.97Z" fill="white"/> -->
<!-- <path d="M919.081 31.5499H905.531V85.7599L863.531 31.5499H840.131V34.5699C843.531 35.5799 846.151 36.9799 848.001 38.7799C849.801 40.5299 850.711 43.0499 850.761 46.3299V53.0199V109.95H864.311V54.1699L907.541 109.95H919.071V31.5499H919.081Z" fill="white"/> -->
<!-- <path d="M1157.74 31.5499H1143.64V34.5699C1147.04 35.5799 1149.66 36.9799 1151.51 38.7799C1153.25 40.4699 1154.16 42.8899 1154.26 46.0099V109.96H1168.04V31.5499H1157.75H1157.74Z" fill="white"/> -->
<!-- <path d="M1086.29 91.8099L1062.66 31.5499H1055.89H1041.79V34.5699C1045.19 35.5799 1047.81 36.9799 1049.66 38.7699C1050.45 39.5399 1051.06 40.4699 1051.52 41.5399V41.5099L1079.9 110.51H1092.22L1124.7 31.5499H1109.8L1086.28 91.8099H1086.29Z" fill="white"/> -->
<path d="M146.431 30.4399V75.0999C151.281 76.0899 156.201 77.1999 161.081 78.5099V45.0899H225.151C248.931 44.9899 259.961 56.8099 261.731 58.3599C261.701 57.3199 259.251 30.4399 226.891 30.4399H182.341H146.431Z" fill="white"/>
<path d="M29.21 136.16L29.55 136.5C42.58 132.34 56.12 125.73 89.61 125.73C102.26 125.73 115.84 129.26 115.84 129.26V199.06H130.49V117.56C129.9 117.44 115.75 113.76 99.3 113.76C66.36 113.76 37.08 129.91 29.21 136.15" fill="white"/>
<path d="M267.79 135L267.45 134.66C256.45 140.44 244.26 143.26 230.34 143.26C212.13 143.26 192.93 137.36 174.9 130.99L171.36 129.73C163.38 126.89 155.12 123.96 146.48 121.45V199.01H161.12V142.31C161.12 142.31 166.16 143.95 173.55 146.13C185.53 149.68 203.68 154.46 216.45 154.46C235.47 154.46 249.19 148.31 257.34 143.15C262.11 140.13 265.68 137.19 267.8 134.98" fill="white"/>
<path d="M98.0902 96.97C124.31 96.97 151.17 102.26 180.87 112.76C199.82 119.46 215.33 123.92 229.47 123.92C264.76 123.92 292.4 97.13 292.4 62.93C292.25 24.96 266.38 -0.0100098 228.62 -0.0100098H95.6402V2.38999C102.04 4.32999 107.07 7.03999 110.58 10.46C113.98 13.77 115.8 18.55 115.99 24.66V71.18C120.1 71.44 124.18 71.82 128.18 72.29C129.01 72.38 129.83 72.48 130.64 72.59V14.65H229.63C248.1 14.65 277.75 26.8 277.75 62.93C277.75 89.44 256.54 110.21 229.47 110.21C219.13 110.21 205.1 106.95 185.31 99.96C165.76 93.04 138.62 84.95 102.02 84.95C65.4202 84.95 37.0002 97.37 21.6302 108.41C10.8702 116.14 3.73023 124.05 -0.00976562 128.66L0.280234 128.95C20.5802 113.52 53.9002 96.97 98.0702 96.97" fill="white"/>
</g>
<defs>
<clipPath id="clip0_230_113">
<rect width="1168.03" height="199.05" fill="white"/>
</clipPath>
</defs>
</svg>
